<svg width="24" height="20" viewBox="0 0 24 20" fill="none" xmlns="http://www.w3.org/2000/svg">
<path fill-rule="evenodd" clip-rule="evenodd" d="M5.05389 1.22553e-05C3.88426 0.000538142 2.75099 0.39897 1.84713 1.12744C0.943271 1.8559 0.324731 2.86934 0.0968776 3.99512C-0.130976 5.1209 0.0459526 6.28937 0.597522 7.3015C1.14909 8.31363 2.04118 9.10681 3.12184 9.54592C4.20249 9.98502 5.40485 10.0429 6.52411 9.70968C7.64336 9.37647 8.61028 8.67277 9.26014 7.71847C9.91 6.76417 10.2026 5.6183 10.0881 4.47604C9.97364 3.33379 9.45915 2.26581 8.63228 1.45403C8.16317 0.991859 7.60544 0.625418 6.99126 0.375858C6.37709 0.126298 5.71863 -0.00144061 5.05389 1.22553e-05ZM23.2757 2.08622C23.4678 2.08622 23.652 2.01134 23.7879 1.87805C23.9237 1.74476 24 1.56399 24 1.37549C24 1.18699 23.9237 1.00622 23.7879 0.87293C23.652 0.739643 23.4678 0.664763 23.2757 0.664763H22.2118C21.6027 0.657866 21.003 0.81276 20.4763 1.11304C19.5158 1.71074 19.346 2.56323 19.1097 3.52491H10.9691C11.0844 3.98444 11.1434 4.45586 11.1448 4.92913H18.692L17.0599 10.9559H5.48923V10.9215C5.34867 10.931 5.20812 10.9368 5.0656 10.9368C4.70826 10.9365 4.35162 10.9057 3.9997 10.8448L4.25154 11.8372C4.28724 11.9918 4.3759 12.1298 4.50272 12.2281C4.62954 12.3264 4.78687 12.3791 4.94847 12.3774H16.6753C16.4177 13.3123 16.1619 13.8161 15.8125 14.0517C15.3908 14.3199 14.6568 14.3391 13.4288 14.3199H5.12417C5.02707 14.3149 4.92995 14.3294 4.83873 14.3625C4.74751 14.3955 4.66409 14.4464 4.59357 14.5121C4.52304 14.5778 4.46688 14.6569 4.4285 14.7445C4.39012 14.8322 4.37033 14.9266 4.37033 15.022C4.37033 15.1175 4.39012 15.2119 4.4285 15.2995C4.46688 15.3872 4.52304 15.4663 4.59357 15.532C4.66409 15.5977 4.74751 15.6486 4.83873 15.6816C4.92995 15.7147 5.02707 15.7291 5.12417 15.7241H13.4113C14.932 15.7414 15.8671 15.7069 16.6207 15.2203C17.3742 14.7337 17.792 13.8525 18.1961 12.2874L20.6539 3.16476C20.6539 3.14752 20.6539 3.14752 20.6715 3.12836C20.7034 2.9643 20.7686 2.8082 20.8632 2.66933C20.9577 2.53046 21.0798 2.41164 21.222 2.31993C21.5296 2.14918 21.8804 2.0681 22.2333 2.08622H23.2757ZM12.1072 6.41189C12.0853 6.2978 12.0234 6.19482 11.9324 6.12072C11.8413 6.04662 11.7267 6.00607 11.6084 6.00607C11.4901 6.00607 11.3755 6.04662 11.2844 6.12072C11.1934 6.19482 11.1315 6.2978 11.1096 6.41189V9.12453C11.1315 9.23861 11.1934 9.3416 11.2844 9.4157C11.3755 9.48979 11.4901 9.53034 11.6084 9.53034C11.7267 9.53034 11.8413 9.48979 11.9324 9.4157C12.0234 9.3416 12.0853 9.23861 12.1072 9.12453V6.41189ZM15.0941 6.41189C15.0721 6.2978 15.0103 6.19482 14.9192 6.12072C14.8282 6.04662 14.7136 6.00607 14.5953 6.00607C14.477 6.00607 14.3624 6.04662 14.2713 6.12072C14.1802 6.19482 14.1184 6.2978 14.0965 6.41189V9.12453C14.1184 9.23861 14.1802 9.3416 14.2713 9.4157C14.3624 9.48979 14.477 9.53034 14.5953 9.53034C14.7136 9.53034 14.8282 9.48979 14.9192 9.4157C15.0103 9.3416 15.0721 9.23861 15.0941 9.12453V6.41189ZM7.26769 16.5517C6.92019 16.5517 6.58049 16.6528 6.29156 16.8423C6.00263 17.0317 5.77743 17.301 5.64445 17.6161C5.51147 17.9311 5.47667 18.2778 5.54447 18.6122C5.61226 18.9467 5.7796 19.2539 6.02531 19.495C6.27103 19.7361 6.5841 19.9003 6.92492 19.9669C7.26574 20.0334 7.61901 19.9993 7.94005 19.8688C8.2611 19.7383 8.5355 19.5173 8.72856 19.2337C8.92162 18.9502 9.02467 18.6169 9.02467 18.2759C9.02467 17.8186 8.83956 17.3801 8.51006 17.0567C8.18056 16.7334 7.73367 16.5517 7.26769 16.5517ZM14.9886 16.5517C14.6411 16.5517 14.3014 16.6528 14.0125 16.8423C13.7236 17.0317 13.4984 17.301 13.3654 17.6161C13.2324 17.9311 13.1976 18.2778 13.2654 18.6122C13.3332 18.9467 13.5006 19.2539 13.7463 19.495C13.992 19.7361 14.3051 19.9003 14.6459 19.9669C14.9867 20.0334 15.34 19.9993 15.661 19.8688C15.9821 19.7383 16.2565 19.5173 16.4495 19.2337C16.6426 18.9502 16.7456 18.6169 16.7456 18.2759C16.7456 17.8186 16.5605 17.3801 16.231 17.0567C15.9015 16.7334 15.4546 16.5517 14.9886 16.5517ZM2.47894 4.50001V5.42147C2.47996 5.52633 2.52286 5.62661 2.59842 5.70077C2.67399 5.77492 2.77618 5.81702 2.88304 5.81802H4.18321V7.08813C4.18372 7.19315 4.22646 7.29372 4.30214 7.36798C4.37781 7.44224 4.4803 7.48418 4.58732 7.48468H5.52632C5.6335 7.48468 5.73629 7.4429 5.81207 7.36854C5.88785 7.29417 5.93043 7.1933 5.93043 7.08813V5.81802H7.2306C7.33761 5.81751 7.4401 5.77557 7.51577 5.70131C7.59145 5.62705 7.63419 5.52648 7.6347 5.42147V4.50001C7.6347 4.39484 7.59213 4.29397 7.51634 4.21961C7.44056 4.14524 7.33777 4.10346 7.2306 4.10346H5.93043V2.8276C5.93043 2.72242 5.88785 2.62156 5.81207 2.54719C5.73629 2.47282 5.6335 2.43105 5.52632 2.43105H4.58732C4.4803 2.43155 4.37781 2.47349 4.30214 2.54775C4.22646 2.62201 4.18372 2.72258 4.18321 2.8276V4.10346H2.88304C2.77603 4.10396 2.67354 4.1459 2.59787 4.22016C2.52219 4.29442 2.47945 4.39499 2.47894 4.50001Z" fill="black"/>
</svg>
