<svg width="16" height="16" viewBox="0 0 16 16" fill="none" xmlns="http://www.w3.org/2000/svg">
<path fill-rule="evenodd" clip-rule="evenodd" d="M12.4444 0C11.5015 0 10.5971 0.374602 9.93029 1.0414C9.26349 1.70819 8.88889 2.61256 8.88889 3.55556C8.88889 4.49855 9.26349 5.40292 9.93029 6.06971C10.5971 6.73651 11.5015 7.11111 12.4444 7.11111C13.3874 7.11111 14.2918 6.73651 14.9586 6.06971C15.6254 5.40292 16 4.49855 16 3.55556C16 2.61256 15.6254 1.70819 14.9586 1.0414C14.2918 0.374602 13.3874 0 12.4444 0ZM0 12.4444C0 11.5015 0.374602 10.5971 1.0414 9.93029C1.70819 9.26349 2.61256 8.88889 3.55556 8.88889C4.49855 8.88889 5.40292 9.26349 6.06971 9.93029C6.73651 10.5971 7.11111 11.5015 7.11111 12.4444C7.11111 13.3874 6.73651 14.2918 6.06971 14.9586C5.40292 15.6254 4.49855 16 3.55556 16C2.61256 16 1.70819 15.6254 1.0414 14.9586C0.374602 14.2918 0 13.3874 0 12.4444ZM8.88889 9.77778C8.88889 9.54203 8.98254 9.31594 9.14924 9.14924C9.31594 8.98254 9.54203 8.88889 9.77778 8.88889H15.1111C15.3469 8.88889 15.573 8.98254 15.7397 9.14924C15.9064 9.31594 16 9.54203 16 9.77778V14.2222C16 14.6937 15.8127 15.1459 15.4793 15.4793C15.1459 15.8127 14.6937 16 14.2222 16H10.6667C10.1952 16 9.74299 15.8127 9.40959 15.4793C9.07619 15.1459 8.88889 14.6937 8.88889 14.2222V9.77778ZM0 0.888889C0 0.653141 0.0936505 0.427048 0.260349 0.260349C0.427048 0.0936505 0.653141 0 0.888889 0H6.22222C6.45797 0 6.68406 0.0936505 6.85076 0.260349C7.01746 0.427048 7.11111 0.653141 7.11111 0.888889V5.33333C7.11111 5.80483 6.92381 6.25701 6.59041 6.59041C6.25701 6.92381 5.80483 7.11111 5.33333 7.11111H1.77778C1.30628 7.11111 0.854097 6.92381 0.520699 6.59041C0.187301 6.25701 0 5.80483 0 5.33333V0.888889Z" fill="black"/>
</svg>
