<svg width="16" height="16" viewBox="0 0 16 16" fill="none" xmlns="http://www.w3.org/2000/svg">
<path d="M15.2004 8.04009C15.1882 8.0402 15.1764 8.03581 15.1672 8.02782L14.9402 7.80079L13.6598 6.52044V8.33112V13.6C13.6598 14.0376 13.486 14.4573 13.1766 14.7667C12.8671 15.0762 12.4474 15.25 12.0098 15.25H4.00983C3.57223 15.25 3.15254 15.0762 2.84311 14.7667C2.53367 14.4573 2.35983 14.0376 2.35983 13.6V8.33112V6.52044L1.0795 7.80079L0.845097 8.03519L0.845017 8.03511L0.835962 8.04449C0.831347 8.04927 0.82583 8.05308 0.819732 8.0557C0.813632 8.05832 0.807072 8.05969 0.800435 8.05975C0.793799 8.05981 0.787216 8.05855 0.781069 8.05603C0.774925 8.05352 0.769343 8.0498 0.764648 8.04511C0.759952 8.04041 0.756239 8.03483 0.753724 8.02868C0.75121 8.02254 0.749944 8.01595 0.750002 8.00931C0.75006 8.00267 0.751439 7.99611 0.754061 7.99C0.756682 7.9839 0.760491 7.97838 0.765267 7.97377L0.765346 7.97385L0.774563 7.96464L2.37456 6.36462L7.97448 0.764639C7.9745 0.764625 7.97455 0.764573 7.97456 0.764559C7.98394 0.75521 7.99659 0.75 8.00983 0.75C8.02305 0.75 8.03573 0.755235 8.0451 0.764559C8.04512 0.764586 8.04515 0.764612 8.04518 0.764639L15.2377 7.95726C15.2457 7.96645 15.2501 7.97828 15.25 7.99052C15.2499 8.00363 15.2446 8.01618 15.2354 8.02545C15.2261 8.03472 15.2135 8.03998 15.2004 8.04009Z" fill="#FDFDFD" stroke="#FDFDFD" stroke-width="1.5"/>
</svg>
