<svg width="15" height="15" viewBox="0 0 15 15" fill="none" xmlns="http://www.w3.org/2000/svg">
<path d="M0.186932 2.96718C0.262333 2.87686 0.356649 2.80419 0.463218 2.75432C0.569787 2.70445 0.686008 2.67859 0.803669 2.67857H11.384L11.6699 1.09955C11.726 0.790965 11.8887 0.511872 12.1295 0.310932C12.3704 0.109992 12.6741 -4.73225e-05 12.9877 1.52668e-08H14.1964C14.4096 1.52668e-08 14.6139 0.0846617 14.7646 0.23536C14.9153 0.386059 15 0.59045 15 0.80357C15 1.01669 14.9153 1.22108 14.7646 1.37178C14.6139 1.52248 14.4096 1.60714 14.1964 1.60714H13.2114L11.5433 10.7812C11.4985 11.0249 11.4059 11.2573 11.2708 11.4649C11.51 11.7449 11.6731 12.0817 11.7442 12.443C11.8154 12.8043 11.7923 13.1778 11.6771 13.5275C11.5619 13.8773 11.3585 14.1914 11.0866 14.4397C10.8147 14.6879 10.4833 14.8619 10.1246 14.9449C9.76583 15.0279 9.39176 15.017 9.03844 14.9133C8.68512 14.8096 8.36448 14.6166 8.10744 14.353C7.8504 14.0893 7.66564 13.7639 7.57098 13.408C7.47632 13.0522 7.47496 12.6779 7.56702 12.3214H5.29025C5.40196 12.7541 5.37562 13.2108 5.21491 13.6278C5.0542 14.0448 4.76716 14.401 4.39396 14.6468C4.02076 14.8926 3.58006 15.0155 3.13353 14.9984C2.68701 14.9813 2.25699 14.8251 1.90366 14.5515C1.55032 14.278 1.29134 13.9008 1.16295 13.4728C1.03457 13.0448 1.0432 12.5873 1.18764 12.1645C1.33208 11.7416 1.6051 11.3745 1.96851 11.1144C2.33191 10.8544 2.76751 10.7145 3.21437 10.7143H9.69847C9.7611 10.7142 9.82171 10.6922 9.86979 10.6521C9.91787 10.6119 9.95037 10.5562 9.96164 10.4946L10.117 9.64284H2.67196C2.23276 9.64284 1.80749 9.48866 1.47033 9.20719C1.13318 8.92571 0.905536 8.53481 0.827107 8.10267L0.012827 3.62544C-0.00811104 3.50967 -0.00337054 3.3907 0.0267139 3.27696C0.0567984 3.16322 0.111492 3.05747 0.186932 2.96718ZM9.10718 12.8571C9.10718 12.9631 9.1386 13.0667 9.19747 13.1548C9.25633 13.2428 9.34 13.3115 9.43789 13.3521C9.53577 13.3926 9.64349 13.4032 9.74741 13.3825C9.85132 13.3619 9.94678 13.3109 10.0217 13.2359C10.0966 13.161 10.1476 13.0656 10.1683 12.9616C10.189 12.8577 10.1784 12.75 10.1378 12.6521C10.0973 12.5542 10.0286 12.4706 9.94052 12.4117C9.85242 12.3528 9.74885 12.3214 9.64289 12.3214C9.50081 12.3214 9.36455 12.3779 9.26409 12.4783C9.16362 12.5788 9.10718 12.715 9.10718 12.8571ZM3.21437 13.3928C3.32032 13.3928 3.4239 13.3614 3.51199 13.3026C3.60009 13.2437 3.66875 13.16 3.7093 13.0621C3.74985 12.9642 3.76045 12.8565 3.73978 12.7526C3.71911 12.6487 3.66809 12.5532 3.59317 12.4783C3.51825 12.4034 3.4228 12.3524 3.31888 12.3317C3.21496 12.311 3.10725 12.3216 3.00936 12.3622C2.91147 12.4027 2.8278 12.4714 2.76894 12.5595C2.71007 12.6476 2.67866 12.7512 2.67866 12.8571C2.67866 12.9992 2.7351 13.1355 2.83556 13.2359C2.93603 13.3364 3.07229 13.3928 3.21437 13.3928ZM2.4108 7.81606C2.42201 7.87732 2.45422 7.93277 2.50188 7.97285C2.54954 8.01294 2.60968 8.03516 2.67196 8.0357H10.409L11.0907 4.28571H1.76661L2.4108 7.81606Z" fill="#FDFDFD"/>
</svg>
